<svg width="41" height="41" viewBox="0 0 41 41" fill="none" xmlns="http://www.w3.org/2000/svg">
<path d="M6.40397 0H34.596C38.1299 0 41 2.87006 41 6.40397V34.596C41 38.1299 38.1299 41 34.596 41H6.40397C2.87005 41 0 38.1299 0 34.596V6.40397C0 2.87006 2.87005 0 6.40397 0Z" fill="#00005B"/>
<path d="M16.8749 25.0661H10.6184L9.34752 29.1989C9.31469 29.3462 9.17535 29.4527 9.0192 29.4447H5.84571C5.66553 29.4447 5.59987 29.3462 5.65672 29.1492L11.0772 13.7662C11.1349 13.6021 11.1837 13.4219 11.2414 13.2089C11.315 12.8477 11.3479 12.4794 11.3479 12.1102C11.3319 12.0197 11.3967 11.93 11.4872 11.9212C11.5032 11.9212 11.52 11.9212 11.5361 11.9212H15.8411C15.9644 11.9212 16.038 11.9701 16.0541 12.0606L22.2041 29.1821C22.2617 29.3622 22.2041 29.4527 22.0399 29.4527H18.5301C18.4068 29.4688 18.2922 29.3871 18.2594 29.2638L16.8749 25.0661ZM11.5937 22.188H15.8739C15.7674 21.8269 15.6361 21.0894 15.4967 20.6385C15.3574 20.1877 15.2012 19.704 15.0379 19.1875C14.8745 18.671 14.7096 18.1545 14.5542 17.646C14.398 17.1375 14.2427 16.637 14.1034 16.1534C13.964 15.6777 13.8495 15.2349 13.7342 14.8417H13.7094C13.5532 15.5712 13.365 16.2927 13.1432 17.0062C12.8894 17.8182 12.6347 18.6462 12.3721 19.499C12.1022 20.343 11.8484 21.4665 11.5937 22.188Z" fill="#9999FF"/>
<path d="M32.1434 23.5902H26.8134C26.887 24.1396 27.076 24.6641 27.3627 25.1397C27.6662 25.5906 28.0922 25.9437 28.5927 26.1567C29.2814 26.4682 30.0357 26.6244 30.79 26.6244C31.2985 26.6404 31.807 26.5996 32.3067 26.5099C32.848 26.4114 33.3806 26.256 33.8891 26.0342C33.9796 25.9605 34.0204 26.0094 34.0284 26.1655V28.74C34.0364 28.8137 34.0204 28.8794 33.9876 28.945C33.9547 28.9939 33.9139 29.0355 33.8642 29.0684C33.3069 29.331 32.7079 29.5272 32.1009 29.6505C31.3714 29.757 30.6411 29.7819 29.9036 29.741C28.7969 29.7738 27.6974 29.5688 26.6812 29.142C25.8612 28.7809 25.1397 28.2315 24.5656 27.5429C24.0322 26.895 23.6391 26.1407 23.4012 25.3367C23.1634 24.5415 23.0489 23.7127 23.0489 22.8847C23.0489 21.983 23.1882 21.0806 23.4669 20.2197C23.7376 19.3837 24.1636 18.5957 24.7297 17.9159C25.2871 17.2432 25.9757 16.6939 26.7637 16.3167C27.6494 15.9067 28.6087 15.7097 29.5849 15.7346C30.5282 15.7185 31.4707 15.9067 32.3404 16.2759C33.037 16.5874 33.644 17.0711 34.1117 17.67C34.5545 18.2442 34.8908 18.892 35.1119 19.5807C35.3249 20.2446 35.4314 20.942 35.4402 21.6387C35.4402 22.0327 35.4242 22.4011 35.3993 22.7214C35.3745 22.9184 35.3417 23.1065 35.2928 23.2955C35.2768 23.4188 35.1695 23.5085 35.047 23.5085C34.9405 23.5085 34.7515 23.5246 34.4896 23.5494C34.2278 23.5742 33.7601 23.5654 33.3742 23.5742C32.9874 23.5902 32.5774 23.5902 32.1434 23.5902ZM26.7965 21.4417H30.3472C30.782 21.4417 31.1015 21.4337 31.3065 21.4257C31.4379 21.4257 31.5692 21.4097 31.7005 21.3849V21.2207C31.7165 20.8924 31.7005 20.5729 31.6429 20.2534C31.3394 19.302 30.4457 18.671 29.4455 18.7119C28.511 18.6542 27.6334 19.1547 27.2065 19.9827C27.0096 20.4496 26.8702 20.942 26.7965 21.4417Z" fill="#9999FF"/>
</svg>
