<svg width="42" height="41" viewBox="0 0 42 41" fill="none" xmlns="http://www.w3.org/2000/svg">
<path d="M38.5337 0L2.72958 0C1.24348 0 0.0387521 1.20902 0.0387521 2.70042L0.0387521 38.2996C0.0387521 39.791 1.24348 41 2.72958 41H38.5337C40.0198 41 41.2245 39.791 41.2245 38.2996V2.70042C41.2245 1.20902 40.0198 0 38.5337 0Z" fill="#1E1E1E"/>
<path d="M26.2644 15.2981C29.0456 15.2981 31.2846 17.5451 31.2846 20.3362C31.2846 23.1273 29.0456 25.3743 26.2644 25.3743C23.4832 25.3743 21.2442 23.1273 21.2442 20.3362C21.2442 17.5451 23.4832 15.2981 26.2644 15.2981Z" fill="#01B7FE"/>
<path d="M16.2541 25.3441C13.4729 25.3441 11.2339 27.591 11.2339 30.3821C11.2339 33.1733 13.4729 35.4202 16.2541 35.4202C19.0353 35.4202 21.2743 33.1733 21.2743 30.3821L21.2743 25.3441L16.2541 25.3441Z" fill="#0AB875"/>
<path d="M16.2139 15.2981C13.4528 15.2981 11.2238 17.5451 11.2238 20.3362C11.2238 23.1273 13.4428 25.3743 16.2139 25.3743L21.2643 25.3743L21.2643 15.2981L16.2139 15.2981Z" fill="#923DFF"/>
<path d="M16.2139 5.24206C13.4528 5.24206 11.2238 7.48905 11.2238 10.2802C11.2238 13.0713 13.4428 15.3182 16.2139 15.3182L21.2643 15.3182L21.2643 5.24206L16.2139 5.24206Z" fill="#E83F0D"/>
<path d="M26.3046 5.24206C29.0657 5.24206 31.2946 7.48905 31.2946 10.2802C31.2946 13.0713 29.0757 15.3182 26.3046 15.3182L21.2542 15.3182L21.2542 5.24206L26.3046 5.24206Z" fill="#FF5947"/>
</svg>
