<svg width="42" height="41" viewBox="0 0 42 41" fill="none" xmlns="http://www.w3.org/2000/svg">
<path d="M34.5625 0H7.43749C3.32988 0 0 3.33395 0 7.44657V33.5534C0 37.666 3.32988 41 7.43749 41H34.5625C38.6701 41 42 37.666 42 33.5534V7.44657C42 3.33395 38.6701 0 34.5625 0Z" fill="#330000"/>
<path d="M20.3525 24.6049H13.8441L12.5199 28.7235C12.5019 28.7986 12.4582 28.8651 12.3965 28.9114C12.3348 28.9578 12.2588 28.9811 12.1818 28.9774H8.88533C8.69732 28.9774 8.63159 28.874 8.6881 28.6671L14.323 12.4185C14.3794 12.2493 14.4358 12.0565 14.4922 11.8402C14.5659 11.4638 14.6036 11.0813 14.6049 10.6977C14.601 10.6709 14.6035 10.6435 14.612 10.6179C14.6206 10.5921 14.635 10.5688 14.6542 10.5497C14.6733 10.5305 14.6966 10.516 14.7223 10.5075C14.748 10.4989 14.7753 10.4964 14.8021 10.5003H19.2818C19.4131 10.5003 19.4882 10.5472 19.5072 10.6413L25.903 28.6953C25.9594 28.8835 25.903 28.9776 25.7339 28.9774H22.0712C22.0083 28.9844 21.9449 28.9682 21.8931 28.9319C21.8413 28.8955 21.8044 28.8415 21.7894 28.7799L20.3525 24.6049ZM14.8584 21.0506H19.31C19.1974 20.6746 19.0659 20.2514 18.9156 19.7811C18.765 19.3113 18.6054 18.8082 18.4367 18.2719C18.2676 17.736 18.0985 17.2 17.9294 16.664C17.7604 16.128 17.6055 15.6109 17.4646 15.1124C17.3237 14.6144 17.1969 14.1584 17.0843 13.7443H17.0561C16.8975 14.5062 16.7 15.2594 16.4644 16.0011C16.2011 16.8474 15.9334 17.7125 15.6614 18.5963C15.3889 19.4805 15.1212 20.2986 14.8584 21.0506Z" fill="#FF9A00"/>
<path d="M29.7063 13.4905C29.4189 13.5021 29.1324 13.4528 28.8653 13.3458C28.5983 13.2388 28.3568 13.0767 28.1567 12.8699C27.9571 12.6541 27.8021 12.401 27.7005 12.1251C27.599 11.8491 27.5529 11.5558 27.565 11.262C27.5547 10.971 27.6059 10.6812 27.7151 10.4114C27.8243 10.1417 27.9892 9.89796 28.1989 9.69634C28.4065 9.49678 28.6517 9.34041 28.9201 9.23632C29.1885 9.13218 29.4749 9.08242 29.7626 9.08985C30.4388 9.08985 30.9695 9.29198 31.3545 9.69634C31.5489 9.90647 31.7 10.1529 31.7991 10.4215C31.8981 10.6902 31.9433 10.9758 31.9321 11.262C31.9439 11.5569 31.8963 11.8513 31.7922 12.1275C31.6882 12.4037 31.5298 12.6562 31.3263 12.8699C31.1138 13.0797 30.86 13.2432 30.5812 13.35C30.3024 13.4568 30.0045 13.5046 29.7063 13.4905ZM27.7621 28.6953V15.2113C27.7621 15.042 27.837 14.9574 27.9876 14.9574H31.4531C31.6033 14.9574 31.6784 15.042 31.6786 15.2113V28.6953C31.6786 28.8836 31.6034 28.9776 31.4531 28.9775H28.0158C27.8468 28.9775 27.7623 28.8834 27.7621 28.6953Z" fill="#FF9A00"/>
</svg>
