<svg width="30" height="41" viewBox="0 0 30 41" fill="none" xmlns="http://www.w3.org/2000/svg">
<path d="M3.77031 36.5587L1.27154 8.89536H28.7285L26.2271 36.5542L14.9832 39.6311L3.77031 36.5587Z" fill="black"/>
<path d="M14.9769 37.245L24.0626 34.7589L26.2002 11.1231H14.9769V37.245Z" fill="#605F5F"/>
<path d="M14.9717 30.1966L14.9567 30.2009L11.1285 29.1803L10.8836 26.4746H9.02363H7.43326L7.91483 31.8017L14.9558 33.7311L14.9717 33.7266V30.1966Z" fill="#EBEBEB"/>
<path d="M15.4347 24.7765V21.3838H11.202L11.6983 16.0591L15.4442 15.9606L15.4347 12.4325H8.59062L8.3364 14.9334L7.52852 23.8655L7.44471 24.7765H8.37102H15.4347Z" fill="#EBEBEB"/>
<path d="M15.4114 15.9653L15.4265 15.9611L19.1807 16.1843L19.4993 19.6872H21.3594H22.9498L22.3485 13.1321L15.4273 12.4309L15.4114 12.4353V15.9653Z" fill="white"/>
<path d="M22.5954 15.9757L22.3009 12.4325H15.0452V14.633V15.9669V15.9757H22.5954Z" fill="white"/>
<path d="M14.9598 21.3854V24.778H19.1924L18.7935 29.1781L14.9598 30.1996V33.7294L22.0065 31.8017L22.0581 31.2285L22.866 22.2964L22.9498 21.3854H22.0235H14.9598Z" fill="white"/>
<path d="M19.8411 2.78536H17.5621L19.9322 5.32371V6.53185H15.0507V5.11726H17.4202L15.0507 2.57899V1.36895H19.8411V2.78536Z" fill="#151515"/>
<path d="M14.1813 1.37139V6.52983H9.97736V4.82478H12.4339V1.37139H14.1811H14.1813Z" fill="#020202"/>
</svg>
