<svg width="42" height="41" viewBox="0 0 42 41" fill="none" xmlns="http://www.w3.org/2000/svg">
<g clip-path="url(#clip0_297_16)">
<mask id="mask0_297_16" style="mask-type:luminance" maskUnits="userSpaceOnUse" x="0" y="0" width="42" height="41">
<path d="M41.5199 0H0V41H41.5199V0Z" fill="white"/>
</mask>
<g mask="url(#mask0_297_16)">
<path d="M34.1675 0H7.35248C3.29182 0 0 3.33395 0 7.44657V33.5534C0 37.666 3.29182 41 7.35248 41H34.1675C38.2281 41 41.5199 37.666 41.5199 33.5534V7.44657C41.5199 3.33395 38.2281 0 34.1675 0Z" fill="#001E36"/>
<path d="M9.3492 28.7516V10.7258C9.3492 10.5945 9.40492 10.5283 9.51634 10.5283C9.81312 10.5283 10.084 10.5239 10.4928 10.5142C10.901 10.505 11.342 10.4956 11.8158 10.4861C12.2893 10.4767 12.7907 10.4674 13.3199 10.4578C13.849 10.4485 14.3736 10.4439 14.8935 10.4437C16.3045 10.4437 17.4928 10.6223 18.4586 10.9797C19.3299 11.2782 20.1244 11.7696 20.7844 12.4183C21.3439 12.9806 21.7763 13.6592 22.0517 14.4071C22.3123 15.135 22.4443 15.9037 22.4417 16.678C22.4417 18.1828 22.0982 19.424 21.4111 20.4016C20.7196 21.3833 19.7474 22.1266 18.6258 22.5314C17.456 22.9735 16.156 23.1234 14.7264 23.1234C14.3178 23.1234 14.0299 23.1188 13.8629 23.1093C13.6958 23.1001 13.4452 23.0953 13.111 23.0952V28.7234C13.1158 28.7579 13.1127 28.7931 13.1018 28.8261C13.0909 28.8592 13.0726 28.8892 13.0483 28.9138C13.0239 28.9385 12.9943 28.957 12.9617 28.968C12.929 28.9791 12.8943 28.9822 12.8603 28.9773H9.54417C9.41407 28.9773 9.3492 28.9023 9.3492 28.7516ZM13.111 13.9135V19.7927C13.3521 19.8117 13.5749 19.8211 13.7794 19.8209H14.6985C15.3748 19.8187 16.0467 19.71 16.6901 19.4989C17.2419 19.3329 17.7349 19.0098 18.1106 18.568C18.4726 18.1356 18.6537 17.5339 18.6537 16.7626C18.6684 16.2169 18.5282 15.6784 18.2498 15.2111C17.9571 14.7591 17.534 14.4095 17.0382 14.2097C16.3908 13.9548 15.6992 13.8349 15.0049 13.8571C14.5592 13.8571 14.1647 13.8617 13.8212 13.8711C13.4774 13.8809 13.2407 13.8949 13.111 13.9135Z" fill="#31A8FF"/>
<path d="M33.2109 18.7237C32.6875 18.4513 32.13 18.252 31.5537 18.1313C30.9186 17.9837 30.2694 17.908 29.6179 17.9056C29.2655 17.8959 28.9136 17.9387 28.5734 18.0326C28.3569 18.0814 28.1644 18.2063 28.0302 18.3852C27.9395 18.5282 27.8911 18.6947 27.891 18.8647C27.8961 19.0297 27.9548 19.1884 28.0581 19.3161C28.2208 19.5088 28.4196 19.667 28.643 19.7815C29.0401 19.9981 29.4493 20.1912 29.8685 20.3598C30.8033 20.6768 31.6965 21.1077 32.5285 21.6433C33.0952 22.0056 33.5642 22.5049 33.8933 23.0961C34.17 23.656 34.3086 24.2755 34.2972 24.9016C34.3138 25.7282 34.0806 26.5402 33.6287 27.2288C33.1449 27.9278 32.473 28.4713 31.6929 28.7944C30.8477 29.1704 29.8033 29.3585 28.5595 29.3586C27.7693 29.3667 26.9805 29.2911 26.2059 29.133C25.5956 29.0196 25.0015 28.8301 24.4372 28.5688C24.3763 28.5369 24.3256 28.4882 24.2911 28.4282C24.2566 28.3683 24.2396 28.2996 24.2422 28.2302V25.1836C24.2389 25.1538 24.2436 25.1236 24.2559 25.0963C24.2682 25.0689 24.2875 25.0455 24.3119 25.0285C24.3359 25.0148 24.3633 25.0088 24.3907 25.0113C24.418 25.0138 24.444 25.0248 24.4651 25.0426C25.1315 25.4406 25.855 25.7308 26.6097 25.903C27.275 26.0719 27.9573 26.1617 28.643 26.171C29.2928 26.171 29.7709 26.0863 30.0774 25.9171C30.2159 25.8529 30.333 25.7495 30.4145 25.6193C30.4961 25.4891 30.5387 25.3378 30.537 25.1836C30.537 24.9394 30.3978 24.7044 30.1193 24.4784C29.8407 24.2527 29.2744 23.98 28.4202 23.6603C27.5456 23.352 26.7164 22.925 25.9552 22.3909C25.4108 22.0074 24.9624 21.5002 24.6461 20.9099C24.3722 20.354 24.2337 19.7398 24.2422 19.1186C24.2407 18.3722 24.4431 17.6399 24.8272 17.0029C25.265 16.3014 25.8937 15.743 26.6376 15.395C27.4545 14.9815 28.4757 14.7747 29.7015 14.7744C30.4193 14.7685 31.1364 14.8204 31.8461 14.9295C32.3601 14.9955 32.8625 15.1332 33.3392 15.3386C33.377 15.3495 33.4118 15.3693 33.4408 15.3962C33.4698 15.4231 33.4923 15.4565 33.5063 15.4937C33.5252 15.5626 33.5345 15.6338 33.5342 15.7053V18.5544C33.5361 18.5876 33.5294 18.6207 33.5148 18.6503C33.5001 18.6801 33.478 18.7053 33.4507 18.7237C33.4134 18.7424 33.3724 18.7522 33.3308 18.7522C33.2892 18.7522 33.2482 18.7424 33.2109 18.7237Z" fill="#31A8FF"/>
</g>
</g>
<defs>
<clipPath id="clip0_297_16">
<rect width="42" height="41" fill="white"/>
</clipPath>
</defs>
</svg>
